<mxfile host="app.diagrams.net" modified="2024-05-15T16:43:59.035Z" agent="Mozilla/5.0 (Macintosh; Intel Mac OS X 10_15_7) AppleWebKit/605.1.15 (KHTML, like Gecko) Version/17.5 Safari/605.1.15" version="24.4.0" etag="yJ7ABoPXByzMsZStOyzi" type="github">
  <diagram name="Page-1" id="ymLmdRIbzBYODP3hA8Bi">
    <mxGraphModel>
      <root>
        <mxCell id="0" />
        <mxCell id="1" parent="0" />
      </root>
    </mxGraphModel>
  </diagram>
</mxfile>
